<svg width="58" height="58" viewBox="0 0 58 58" fill="none" xmlns="http://www.w3.org/2000/svg">
<path d="M7.66016 17.9795L28.9993 30.3286L50.1934 18.0519" stroke="white" stroke-width="1.5" stroke-linecap="round" stroke-linejoin="round"/>
<path d="M29 52.2239V30.3047" stroke="white" stroke-width="1.5" stroke-linecap="round" stroke-linejoin="round"/>
<path d="M23.9965 5.99301L11.0915 13.1706C8.16736 14.7898 5.7749 18.8497 5.7749 22.1847V35.8389C5.7749 39.1739 8.16736 43.2339 11.0915 44.853L23.9965 52.0306C26.7515 53.5531 31.2707 53.5531 34.0257 52.0306L46.9307 44.853C49.8549 43.2339 52.2474 39.1739 52.2474 35.8389V22.1847C52.2474 18.8497 49.8549 14.7898 46.9307 13.1706L34.0257 5.99301C31.2465 4.44634 26.7515 4.44634 23.9965 5.99301Z" stroke="white" stroke-width="1.5" stroke-linecap="round" stroke-linejoin="round"/>
<path d="M41.0828 31.9966V23.1516L18.1487 9.9082" stroke="white" stroke-width="1.5" stroke-linecap="round" stroke-linejoin="round"/>
</svg>
