<svg width="179" height="32" viewBox="0 0 179 32" fill="none" xmlns="http://www.w3.org/2000/svg">
<path d="M156.109 10.8268V30.9995H161.962V13.7555H172.149V30.9995H178.002V10.8268L174.512 8.79688H159.611L156.109 10.8268Z" fill="#1A236E"/>
<path d="M126.306 30.9988V14.6217V8.75391H120.823L117.332 10.7733V13.7548H120.454V30.9988H126.306Z" fill="#1A236E"/>
<path d="M79.9883 10.8268V30.9995H85.8411V13.7555H91.1456L93.7609 15.2779V30.9995H99.6137L99.6348 15.2779L102.261 13.7555H107.586V30.9995H113.439V12.307L109.938 8.79688H100.204L96.7137 10.8268L93.2125 8.79688H83.4894L79.9883 10.8268Z" fill="#1A236E"/>
<path d="M32.7552 30.9993V13.7552H42.9423V30.9993H48.7951V10.8266L45.294 8.80721H32.7552V0.0107422H26.9551C26.9551 10.3508 26.9023 20.6592 26.9023 31.0098H32.7552V30.9993Z" fill="#1A236E"/>
<path fill-rule="evenodd" clip-rule="evenodd" d="M120.453 0H126.306V5.86784H120.453V0Z" fill="#CA212A"/>
<path d="M4.93536 30.9991H23.0001V26.0511H5.85284V4.95859H23.0001V0H4.93536L0 2.85462V28.1445L4.93536 30.9991Z" fill="#1A236E"/>
<path d="M130.262 28.9803C130.262 23.916 130.262 15.8913 130.262 10.827L133.752 8.80762H148.653L152.154 10.827C152.154 15.8913 152.154 23.916 152.154 28.9803L148.653 30.9997H133.752L130.262 28.9803ZM136.115 26.0517H146.302C146.302 21.96 146.302 17.8578 146.302 13.7662H136.115C136.115 17.8578 136.115 21.96 136.115 26.0517Z" fill="#1A236E"/>
<path d="M53.4453 28.9803C53.4453 23.4191 53.4453 16.3882 53.4453 10.827L56.9465 8.80762H71.8475L75.3381 10.827V20.2684L71.8475 22.3829H59.3087V26.0517C64.6553 26.0517 70.002 26.0517 75.3486 26.0517V28.9803L71.858 30.9997H56.957L53.4559 28.9803H53.4453ZM69.4852 17.4244V13.7556H59.2981V17.4244H69.4852Z" fill="#1A236E"/>
</svg>
